External Loads File
version=1
nRows=31
nColumns=13
Range=5.000000e-03-10 seconds
endheader
time 	forceRightX 	forceRightY 	forceRightZ 	pointRightX 	pointRightY 	pointRightZ 	forceLeftX 	forceLeftY 	forceLeftZ 	pointLeftX 	pointLeftY 	pointLeftZ 		
7.505000 -5.108630 63.545911 -0.000000 0.279830 0.476981 -0.128051 134.280508 756.643073 -0.000000 0.354916 0.153054 -0.365215
7.510000 -8.968559 71.222526 -0.000000 0.289523 0.480977 -0.128021 152.025232 736.788470 -0.000000 0.345547 0.149754 -0.365065
7.515000 -12.126278 78.689026 -0.000000 0.299282 0.484491 -0.128002 166.636944 710.876577 -0.000000 0.336047 0.147133 -0.364916
7.520000 -14.673780 85.857113 -0.000000 0.308952 0.487351 -0.128116 177.595145 679.332662 -0.000000 0.326454 0.145193 -0.364836
7.525000 -16.636587 92.730209 -0.000000 0.318579 0.489509 -0.128188 184.905756 642.618309 -0.000000 0.316854 0.143833 -0.364817
7.530000 -18.039797 99.384245 -0.000000 0.328088 0.490975 -0.128199 188.591478 601.308485 -0.000000 0.307233 0.143240 -0.364720
7.535000 -18.843760 105.966667 -0.000000 0.337720 0.491711 -0.128137 189.199504 555.928093 -0.000000 0.297640 0.143582 -0.364546
7.540000 -19.271592 112.624504 -0.000000 0.346919 0.491815 -0.127979 186.035509 507.585902 -0.000000 0.288033 0.144539 -0.364338
7.545000 -19.372393 119.555753 -0.000000 0.355879 0.491237 -0.127823 179.670037 457.313093 -0.000000 0.278496 0.146182 -0.364163
7.550000 -19.201513 126.947629 -0.000000 0.364679 0.490030 -0.127723 170.719589 406.471709 -0.000000 0.269064 0.148537 -0.363996
7.555000 -18.849167 134.976011 -0.000000 0.373280 0.488163 -0.127790 159.769407 356.542915 -0.000000 0.259786 0.151494 -0.363781
7.560000 -18.470833 143.818846 -0.000000 0.381400 0.485578 -0.127483 147.304627 308.864019 -0.000000 0.250712 0.155104 -0.363626
7.565000 -17.971566 153.699334 -0.000000 0.389348 0.482311 -0.127291 134.338900 264.217088 -0.000000 0.241775 0.159351 -0.363569
7.570000 -17.544071 164.804175 -0.000000 0.396941 0.478281 -0.127107 121.167397 223.423302 -0.000000 0.233229 0.164143 -0.363506
7.575000 -17.218327 177.311284 -0.000000 0.404092 0.473553 -0.126977 108.359791 186.891601 -0.000000 0.225080 0.169628 -0.363413
7.580000 -16.957334 191.324470 -0.000000 0.410977 0.468224 -0.126592 96.405857 154.791901 -0.000000 0.217241 0.175614 -0.363401
7.585000 -16.788634 206.798384 -0.000000 0.417478 0.462156 -0.126292 85.583709 127.161516 -0.000000 0.209732 0.182109 -0.363350
7.590000 -16.966907 223.480868 -0.000000 0.423495 0.455676 -0.126041 75.954708 103.933906 -0.000000 0.202646 0.189079 -0.363226
7.595000 -17.422502 240.985948 -0.000000 0.429130 0.448420 -0.125645 67.685446 84.715886 -0.000000 0.196008 0.196439 -0.363002
7.600000 -17.935297 258.854431 -0.000000 0.434346 0.440388 -0.125195 60.811427 68.976960 -0.000000 0.189441 0.204367 -0.362047
7.605000 -19.163902 276.518454 -0.000000 0.439405 0.431840 -0.125419 55.027460 56.345797 -0.000000 0.183910 0.212607 -0.361936
7.610000 -21.032881 293.434291 -0.000000 0.443964 0.422722 -0.125513 50.221121 46.241116 -0.000000 0.178991 0.221158 -0.361880
7.615000 -23.717472 309.116716 -0.000000 0.448030 0.413392 -0.125548 46.195093 38.168509 -0.000000 0.174642 0.230029 -0.361783
7.620000 -27.007735 323.324597 -0.000000 0.451812 0.403589 -0.125631 42.832116 31.649113 -0.000000 0.170923 0.239057 -0.361743
7.625000 -30.715984 336.081460 -0.000000 0.455121 0.393430 -0.125752 40.052979 26.333043 -0.000000 0.167832 0.248509 -0.361759
7.630000 -34.862941 347.608335 -0.000000 0.458282 0.383050 -0.125800 37.829209 22.010331 -0.000000 0.165278 0.258051 -0.361685
7.635000 -39.188376 358.285707 -0.000000 0.460751 0.372326 -0.125896 36.207126 18.525662 -0.000000 0.163288 0.267818 -0.361729
7.640000 -43.620024 368.527730 -0.000000 0.462655 0.361519 -0.125771 35.239056 15.778970 -0.000000 0.162011 0.277784 -0.361740
7.645000 -47.767324 378.780391 -0.000000 0.464006 0.350577 -0.125589 34.972616 13.617755 -0.000000 0.161475 0.287881 -0.361808
7.650000 -51.199966 389.458279 -0.000000 0.465122 0.339531 -0.125492 35.404173 11.860277 -0.000000 0.161252 0.298014 -0.361826
7.655000 -53.355761 400.904089 -0.000000 0.465943 0.328242 -0.125339 36.466867 10.304343 -0.000000 0.161645 0.308296 -0.361807
